HIERARCHY
ROOT Hips
{
	OFFSET 0.000000 0.000000 0.000000
	CHANNELS 6 Xposition Yposition Zposition Zrotation Yrotation Xrotation 
	JOINT LHipJoint
	{
		OFFSET 0.000000 0.000000 0.000000
		CHANNELS 3 Zrotation Yrotation Xrotation
		JOINT LeftUpLeg
		{
			OFFSET 1.363060 -1.794630 0.839290
			CHANNELS 3 Zrotation Yrotation Xrotation
			JOINT LeftLeg
			{
				OFFSET 2.448110 -6.726130 0.000000
				CHANNELS 3 Zrotation Yrotation Xrotation
				JOINT LeftFoot
				{
					OFFSET 2.562200 -7.039590 0.000000
					CHANNELS 3 Zrotation Yrotation Xrotation
					JOINT LeftToeBase
					{
						OFFSET 0.157640 -0.433110 2.322550
						CHANNELS 3 Zrotation Yrotation Xrotation
						End Site
						{
							OFFSET 0.000000 0.000000 0.000000
						}
					}
				}
			}
		}
	}
	JOINT RHipJoint
	{
		OFFSET 0.000000 0.000000 0.000000
		CHANNELS 3 Zrotation Yrotation Xrotation
		JOINT RightUpLeg
		{
			OFFSET -1.305520 -1.794630 0.839290
			CHANNELS 3 Zrotation Yrotation Xrotation
			JOINT RightLeg
			{
				OFFSET -2.542530 -6.985550 0.000000
				CHANNELS 3 Zrotation Yrotation Xrotation
				JOINT RightFoot
				{
					OFFSET -2.568260 -7.056230 0.000000
					CHANNELS 3 Zrotation Yrotation Xrotation
					JOINT RightToeBase
					{
						OFFSET -0.164730 -0.452590 2.363150
						CHANNELS 3 Zrotation Yrotation Xrotation
						End Site
						{
							OFFSET 0.000000 0.000000 0.000000
						}
					}
				}
			}
		}
	}
}
MOTION
Frames: 33
Frame Time: 0.008333
4.946403 17.394355 0.798547 -178.937875 -74.258847 -161.131640 -10.647584 0.068166 -4.158551 -10.174858 22.273941 -20.984064 -2.835983 -1.082928 -1.749210 1.903666 14.494643 3.353973 3.087800 0.000000 -38.949400 9.559404 -0.114256 2.211904 0.492519 7.792092 -20.580131 2.186589 1.081487 -4.790890 0.269628 0.092200 11.117409 -0.637600 0.000000 -62.854700
4.951116 17.394875 0.797868 -178.994391 -73.816501 -161.185460 -10.642628 0.090779 -4.196593 -10.183963 22.477501 -20.941488 -2.834847 -1.062975 -1.530351 1.936732 14.685494 3.220932 3.091400 0.000000 -38.819100 9.558303 -0.115476 2.267882 0.410744 8.028195 -20.621047 2.184394 1.064989 -4.661611 0.294603 0.266908 11.142483 -0.578000 0.000000 -62.905100
4.954962 17.395263 0.797716 -179.046949 -73.380345 -161.249104 -10.640506 0.116776 -4.226200 -10.192411 22.680377 -20.893999 -2.833855 -1.044402 -1.322742 1.968501 14.869616 3.092120 3.093900 -0.000000 -38.691000 9.555744 -0.120458 2.329483 0.331542 8.258768 -20.656241 2.183298 1.050118 -4.538355 0.319508 0.438627 11.167736 -0.519800 0.000000 -62.961199
4.958155 17.395462 0.798197 -179.096704 -72.950886 -161.324478 -10.641116 0.145776 -4.248783 -10.199863 22.885105 -20.839845 -2.833217 -1.027122 -1.126815 1.998484 15.043953 2.966760 3.094400 -0.000000 -38.568801 9.551865 -0.128874 2.395764 0.254529 8.483723 -20.683821 2.183179 1.036529 -4.419904 0.344391 0.608391 11.191995 -0.462399 -0.000000 -63.023400
4.960593 17.395487 0.799362 -179.141715 -72.528658 -161.412128 -10.644518 0.177626 -4.265117 -10.206538 23.094032 -20.778230 -2.833197 -1.011336 -0.944416 2.026325 15.206623 2.844819 3.092600 -0.000000 -38.452100 9.546768 -0.140749 2.466329 0.180060 8.701968 -20.704024 2.184142 1.024127 -4.306128 0.369439 0.777849 11.215203 -0.405400 -0.000000 -63.091800
4.962244 17.395390 0.801283 -179.181630 -72.113277 -161.511970 -10.650757 0.212168 -4.275303 -10.212702 23.307165 -20.708477 -2.833756 -0.997314 -0.778864 2.051929 15.357661 2.727890 3.088900 -0.000000 -38.338100 9.540479 -0.156026 2.540916 0.108544 8.912405 -20.717971 2.186323 1.012824 -4.197645 0.394886 0.948658 11.239653 -0.347999 0.000000 -63.165300
4.963135 17.395238 0.804012 -179.216465 -71.704932 -161.624249 -10.659772 0.249106 -4.280159 -10.218288 23.525527 -20.629800 -2.834906 -0.985117 -0.631718 2.075233 15.496974 2.616364 3.083500 -0.000001 -38.227800 9.533099 -0.174437 2.618675 0.040611 9.113852 -20.725073 2.189836 1.002489 -4.094733 0.420959 1.122717 11.266154 -0.289700 0.000001 -63.243400
4.963272 17.394952 0.807622 -179.242437 -71.303209 -161.751400 -10.671325 0.287981 -4.282160 -10.222262 23.753463 -20.540972 -2.837076 -0.974443 -0.500599 2.095700 15.620783 2.508059 3.075100 -0.000000 -38.121400 9.525069 -0.195465 2.697741 -0.022880 9.304378 -20.723381 2.194776 0.992839 -3.996803 0.447906 1.302710 11.294335 -0.229400 0.000000 -63.327000
4.962683 17.394650 0.812149 -179.261323 -70.907814 -161.892359 -10.685353 0.328528 -4.281037 -10.224729 23.988025 -20.441455 -2.839769 -0.965467 -0.388821 2.113854 15.732983 2.405138 3.065100 -0.000001 -38.018500 9.516361 -0.218704 2.777478 -0.081286 9.482694 -20.713278 2.201295 0.983934 -3.906088 0.475900 1.489636 11.327474 -0.166801 0.000000 -63.414500
4.961324 17.394363 0.817630 -179.270025 -70.518368 -162.047975 -10.701693 0.370399 -4.278003 -10.224541 24.229561 -20.330711 -2.842943 -0.957971 -0.294852 2.129752 15.833590 2.306659 3.053400 -0.000000 -37.919200 9.507205 -0.243679 2.856451 -0.133612 9.647435 -20.693360 2.209515 0.975724 -3.823347 0.505066 1.684795 11.366534 -0.101200 0.000000 -63.506400
4.959266 17.394144 0.824088 -179.270335 -70.134709 -162.216609 -10.720118 0.413301 -4.273443 -10.221381 24.475675 -20.208388 -2.846198 -0.951823 -0.218735 2.143921 15.925996 2.213388 3.040900 -0.000000 -37.823000 9.497749 -0.269794 2.933670 -0.179802 9.797813 -20.663190 2.219415 0.968233 -3.750539 0.535408 1.888302 11.413897 -0.032600 0.000001 -63.601300
4.956659 17.393963 0.831535 -179.261374 -69.756495 -162.399600 -10.740043 0.456598 -4.269220 -10.214163 24.726887 -20.074896 -2.849550 -0.946499 -0.155926 2.156427 16.009654 2.122511 3.026800 -0.000000 -37.730900 9.488428 -0.296127 3.007136 -0.218835 9.932318 -20.620792 2.231014 0.961333 -3.687969 0.566931 2.101007 11.469124 0.039500 0.000000 -63.701701
4.953446 17.393866 0.839951 -179.243704 -69.383777 -162.594230 -10.761267 0.500227 -4.265184 -10.203030 24.979648 -19.930990 -2.852636 -0.941860 -0.105440 2.167859 16.088034 2.034455 3.012000 -0.000000 -37.642300 9.479352 -0.322253 3.076368 -0.251473 10.051149 -20.566015 2.244188 0.955188 -3.637575 0.599462 2.321683 11.533769 0.114700 -0.000000 -63.807300
4.949676 17.393819 0.849311 -179.217603 -69.016397 -162.798929 -10.783240 0.543860 -4.262029 -10.187933 25.232200 -19.778495 -2.855370 -0.937527 -0.063179 2.178558 16.162407 1.947454 2.996300 -0.000001 -37.555900 9.470867 -0.347536 3.140360 -0.277650 10.153759 -20.499043 2.258820 0.949779 -3.599469 0.632829 2.549592 11.607798 0.192900 0.000001 -63.919300
4.945230 17.393915 0.859527 -179.185834 -68.653975 -163.008253 -10.805779 0.587668 -4.258562 -10.170126 25.478471 -19.619336 -2.857209 -0.933476 -0.028723 2.189496 16.238673 1.862508 2.981400 0.000000 -37.471100 9.462841 -0.371727 3.199756 -0.299552 10.243035 -20.421378 2.274524 0.945411 -3.575602 0.666525 2.780541 11.692390 0.272800 0.000000 -64.036200
4.940313 17.394106 0.870550 -179.151369 -68.296291 -163.219604 -10.828163 0.631365 -4.255360 -10.150927 25.716995 -19.456653 -2.858239 -0.929327 0.002100 2.200886 16.317270 1.777899 2.966800 0.000000 -37.386900 9.455632 -0.394128 3.254067 -0.318368 10.319545 -20.334463 2.291017 0.942032 -3.565215 0.700303 3.013216 11.786047 0.353900 -0.000000 -64.159800
4.934801 17.394368 0.882261 -179.116339 -67.943137 -163.427507 -10.850033 0.675145 -4.251868 -10.132380 25.944955 -19.293829 -2.858499 -0.924982 0.031577 2.213134 16.400156 1.693169 2.953001 -0.000000 -37.301799 9.449384 -0.414563 3.303847 -0.336263 10.384815 -20.241150 2.307954 0.939756 -3.567963 0.733846 3.245173 11.888422 0.435500 -0.000000 -64.290100
4.928674 17.394684 0.894619 -179.082470 -67.594205 -163.627999 -10.870951 0.719141 -4.248007 -10.117080 26.161199 -19.134343 -2.858224 -0.920329 0.061902 2.226385 16.487686 1.607642 2.939800 -0.000001 -37.214899 9.444238 -0.432786 3.349613 -0.355368 10.440770 -20.144448 2.325003 0.938595 -3.582187 0.766895 3.474624 11.997391 0.516900 0.000001 -64.427701
4.921922 17.395049 0.907469 -179.052879 -67.249091 -163.815472 -10.890615 0.763570 -4.243226 -10.107774 26.364286 -18.982067 -2.857661 -0.915372 0.094157 2.240780 16.580400 1.521467 2.927501 0.000000 -37.125300 9.440234 -0.448694 3.392260 -0.377755 10.489086 -20.048568 2.341888 0.938626 -3.606718 0.799274 3.699969 12.111944 0.597600 -0.000000 -64.572700
4.914601 17.395432 0.920740 -179.030904 -66.907350 -163.985895 -10.908741 0.808602 -4.237437 -10.107303 26.554470 -18.840178 -2.857186 -0.910100 0.128870 2.256217 16.677460 1.434816 2.915900 -0.000000 -37.032300 9.437475 -0.462136 3.432367 -0.405579 10.530858 -19.956992 2.358298 0.939748 -3.639091 0.830844 3.920162 12.230221 0.677200 0.000000 -64.724900
4.906767 17.395832 0.934334 -179.019739 -66.568983 -164.134988 -10.925187 0.854465 -4.230367 -10.118240 26.731694 -18.710940 -2.857118 -0.904627 0.165236 2.272548 16.778111 1.348847 2.905300 -0.000000 -36.936000 9.435909 -0.473163 3.470920 -0.440922 10.568538 -19.873259 2.373899 0.941887 -3.677237 0.861426 4.133671 12.350591 0.755100 -0.000000 -64.882700
4.898335 17.396199 0.948241 -179.017484 -66.233922 -164.261411 -10.939816 0.901053 -4.223022 -10.142931 26.901052 -18.598572 -2.858475 -0.898955 0.204250 2.288892 16.876213 1.262201 2.894100 -0.000000 -36.837800 9.435753 -0.481538 3.507424 -0.483258 10.598241 -19.802155 2.389026 0.944844 -3.717360 0.891636 4.345794 12.471235 0.833000 -0.000001 -65.050300
4.889424 17.396551 0.962362 -179.027726 -65.902353 -164.362501 -10.952919 0.948735 -4.214678 -10.182744 27.061433 -18.502091 -2.861166 -0.893357 0.241955 2.305237 16.972763 1.178324 2.883600 -0.000001 -36.738101 9.436637 -0.487623 3.543243 -0.534865 10.624301 -19.744927 2.403212 0.948589 -3.758637 0.921030 4.552545 12.591331 0.909500 0.000000 -65.222701
4.880040 17.396906 0.976681 -179.049709 -65.574996 -164.437290 -10.964633 0.997525 -4.205710 -10.238739 27.215806 -18.422199 -2.865709 -0.888092 0.276008 2.320970 17.064280 1.098041 2.873300 -0.000000 -36.639000 9.438578 -0.491632 3.578489 -0.595904 10.645680 -19.703540 2.416466 0.952956 -3.798814 0.949761 4.755381 12.709591 0.985100 -0.000001 -65.399600
4.870306 17.397199 0.991202 -179.082327 -65.252580 -164.487635 -10.975046 1.047002 -4.197330 -10.310835 27.368497 -18.359636 -2.872670 -0.883129 0.305364 2.335211 17.145353 1.021771 2.862400 -0.000000 -36.542300 9.441576 -0.493274 3.612285 -0.664595 10.659502 -19.680032 2.429087 0.957640 -3.835420 0.978275 4.958369 12.825950 1.061100 0.000000 -65.581700
4.860285 17.397497 1.005918 -179.124589 -64.936367 -164.514341 -10.984444 1.097102 -4.189671 -10.398577 27.520770 -18.312514 -2.882151 -0.878798 0.326380 2.347551 17.214094 0.950760 2.850800 0.000000 -36.450900 9.445446 -0.492881 3.644919 -0.740850 10.666686 -19.674010 2.440991 0.962580 -3.868105 1.006442 5.160617 12.939625 1.137400 0.000000 -65.768500
4.850054 17.397769 1.020835 -179.174884 -64.627865 -164.519836 -10.992983 1.147457 -4.183251 -10.500966 27.674173 -18.279525 -2.894207 -0.875251 0.336499 2.357551 17.268310 0.886484 2.838700 -0.000000 -36.366600 9.450127 -0.490524 3.676043 -0.823512 10.666492 -19.685384 2.452243 0.967586 -3.896504 1.034312 5.362829 13.051441 1.214101 0.000000 -65.958901
4.839710 17.398048 1.035986 -179.231023 -64.328423 -164.506552 -11.000863 1.197729 -4.178569 -10.616548 27.829932 -18.259142 -2.908880 -0.872608 0.333320 2.364737 17.305451 0.830113 2.826000 0.000000 -36.290400 9.455491 -0.486260 3.705287 -0.911226 10.658821 -19.713128 2.462894 0.972574 -3.920784 1.061796 5.564423 13.161809 1.291000 0.000001 -66.149800
4.829266 17.398349 1.051339 -179.290934 -64.039968 -164.476216 -11.008173 1.247718 -4.175566 -10.744036 27.987265 -18.248497 -2.925920 -0.871221 0.313988 2.369034 17.325643 0.782449 2.812900 0.000000 -36.223699 9.461506 -0.480571 3.732994 -1.003943 10.645432 -19.755301 2.472741 0.977504 -3.942251 1.088560 5.762832 13.270905 1.367500 -0.000000 -66.340500
4.818846 17.398675 1.066903 -179.353398 -63.763751 -164.431431 -11.014913 1.296958 -4.174541 -10.881797 28.145711 -18.246247 -2.945094 -0.871160 0.276878 2.370380 17.328612 0.743960 2.799800 0.000000 -36.167000 9.468084 -0.473369 3.758858 -1.100617 10.627122 -19.810637 2.481762 0.982352 -3.961881 1.114402 5.956233 13.379246 1.442800 -0.000000 -66.528600
4.808391 17.399057 1.082660 -179.415204 -63.500620 -164.374243 -11.021273 1.345230 -4.175617 -11.027996 28.304992 -18.251721 -2.966291 -0.872396 0.221679 2.368642 17.313261 0.714505 2.786399 0.000000 -36.119800 9.475022 -0.464668 3.782660 -1.199592 10.604490 -19.877645 2.490139 0.987282 -3.981724 1.139246 6.143330 13.488620 1.516600 -0.000000 -66.715800
4.798031 17.399445 1.098553 -179.477424 -63.251167 -164.304591 -11.027010 1.392424 -4.178586 -11.182513 28.462017 -18.262707 -2.989027 -0.875179 0.146454 2.364239 17.282631 0.694831 2.773400 0.000001 -36.080399 9.482438 -0.454644 3.804792 -1.302482 10.580927 -19.954587 2.497385 0.992249 -4.002574 1.162555 6.319531 13.597798 1.587100 0.000000 -66.895700
4.787758 17.399872 1.114573 -179.538372 -63.015398 -164.223952 -11.032299 1.438396 -4.183604 -11.343423 28.616268 -18.279226 -3.013159 -0.879275 0.052415 2.357257 17.236529 0.683742 2.760500 -0.000001 -36.047900 9.490086 -0.443002 3.824939 -1.408192 10.557580 -20.040197 2.503679 0.997512 -4.026359 1.184261 6.483004 13.708014 1.653601 -0.000000 -67.070300
